<svg width="20" height="21" viewBox="0 0 20 21" fill="none" xmlns="http://www.w3.org/2000/svg">
<path d="M19.5514 16.4302L16.4629 13.3342C15.8477 12.7202 14.8288 12.739 14.1922 13.377L12.6362 14.9365C12.538 14.882 12.4362 14.8253 12.3292 14.7651C11.3467 14.2195 10.0017 13.4715 8.58633 12.052C7.16702 10.6296 6.4198 9.27935 5.87388 8.29387C5.81593 8.18938 5.76084 8.08885 5.70645 7.99327L6.75081 6.94792L7.26416 6.43272C7.9019 5.79354 7.91957 4.77263 7.30552 4.15689L4.21685 1.06052C3.6032 0.445483 2.58391 0.464184 1.94617 1.10337L1.07566 1.98081L1.09964 2.00455C0.807826 2.37777 0.56369 2.80838 0.382439 3.27263C0.215009 3.71451 0.11076 4.13631 0.0630774 4.55871C-0.344639 7.94756 1.20034 11.0445 5.3934 15.2475C11.1894 21.0562 15.8605 20.6175 16.0619 20.5959C16.5011 20.5435 16.9214 20.4383 17.349 20.2719C17.8082 20.092 18.2376 19.848 18.6095 19.5562L18.6286 19.5729L19.5105 18.7074C20.1468 18.0683 20.1652 17.0474 19.5514 16.4302ZM18.8244 18.0191L18.4357 18.408L18.2809 18.5571C18.0372 18.7933 17.6152 19.125 16.9991 19.3666C16.6493 19.5015 16.3045 19.5882 15.9537 19.63C15.9095 19.6343 11.5162 20.01 6.07872 14.5606C1.45543 9.92705 0.714535 7.25703 1.02511 4.67101C1.06401 4.32827 1.14979 3.98335 1.28692 3.62289C1.52997 3.00182 1.86068 2.57932 2.09455 2.33463L2.63189 1.79073C2.89083 1.53051 3.2947 1.51062 3.53143 1.74789L6.62001 4.84347C6.85634 5.08104 6.83769 5.48582 6.57835 5.74684L4.49248 7.83536L4.68498 8.16009C4.792 8.34106 4.90513 8.5439 5.02596 8.76425C5.59973 9.80139 6.38476 11.221 7.90081 12.7392C9.41291 14.2555 10.8273 15.0416 11.8589 15.6152C12.0818 15.7388 12.2854 15.8524 12.468 15.9615L12.7927 16.1544L14.8772 14.0645C15.1372 13.805 15.5425 13.7858 15.7792 14.0224L18.8664 17.1172C19.1024 17.3544 19.0837 17.7592 18.8244 18.0191Z" fill="black" fill-opacity="0.7"/>
</svg>
