<svg width="18" height="18" viewBox="0 0 18 18" fill="none" xmlns="http://www.w3.org/2000/svg">
<path d="M15.1875 5.62427H2.8125C2.50184 5.62427 2.25 5.87611 2.25 6.18677V8.43675C2.25 8.7474 2.50184 8.99925 2.8125 8.99925H15.1875C15.4982 8.99925 15.75 8.7474 15.75 8.43675V6.18677C15.75 5.87611 15.4982 5.62427 15.1875 5.62427Z" stroke="black" stroke-opacity="0.7" stroke-width="1.2" stroke-linecap="round" stroke-linejoin="round"/>
<path d="M14.625 8.99927V14.0618C14.625 14.2109 14.5658 14.354 14.4602 14.4596C14.3548 14.565 14.2117 14.6243 14.0625 14.6243H3.9375C3.78832 14.6243 3.64524 14.565 3.53975 14.4596C3.43426 14.354 3.375 14.2109 3.375 14.0618V8.99927" stroke="black" stroke-opacity="0.7" stroke-width="1.2" stroke-linecap="round" stroke-linejoin="round"/>
<path d="M9 5.62427V14.6243" stroke="black" stroke-opacity="0.7" stroke-width="1.2" stroke-linecap="round" stroke-linejoin="round"/>
<path d="M12.1852 4.82959C11.3836 5.62411 9 5.62411 9 5.62411C9 5.62411 9 3.24052 9.79455 2.43896C10.1116 2.12194 10.5416 1.94385 10.9898 1.94385C11.4382 1.94385 11.8682 2.12194 12.1852 2.43896C12.5022 2.75598 12.6802 3.18595 12.6802 3.63427C12.6802 4.0826 12.5022 4.51257 12.1852 4.82959Z" stroke="black" stroke-opacity="0.7" stroke-width="1.2" stroke-linecap="round" stroke-linejoin="round"/>
<path d="M5.81494 4.82959C6.6165 5.62411 9.0001 5.62411 9.0001 5.62411C9.0001 5.62411 9.0001 3.24052 8.20555 2.43896C7.88853 2.12194 7.45858 1.94385 7.01025 1.94385C6.56192 1.94385 6.13195 2.12194 5.81494 2.43896C5.49793 2.75598 5.31982 3.18595 5.31982 3.63427C5.31982 4.0826 5.49793 4.51257 5.81494 4.82959Z" stroke="black" stroke-opacity="0.7" stroke-width="1.2" stroke-linecap="round" stroke-linejoin="round"/>
</svg>
