<svg width="20" height="17" viewBox="0 0 20 17" fill="none" xmlns="http://www.w3.org/2000/svg">
<path d="M3.32213 0.636178C3.48212 0.635127 3.64211 0.634076 3.80695 0.632993C4.33475 0.630138 4.86251 0.630331 5.39031 0.630805C5.75789 0.630006 6.12546 0.629114 6.49303 0.628134C7.2631 0.6266 8.03315 0.626659 8.80322 0.627742C9.78926 0.628934 10.7752 0.625451 11.7613 0.620678C12.5203 0.617646 13.2793 0.617468 14.0383 0.618109C14.4018 0.618004 14.7653 0.616927 15.1288 0.614857C15.6374 0.612315 16.1459 0.61371 16.6546 0.616092C16.879 0.613734 16.879 0.613734 17.108 0.611328C17.9876 0.62042 18.6154 0.726012 19.3643 1.30971C19.8907 2.05991 19.973 2.63903 19.9773 3.587C19.9796 3.83412 19.9819 4.08125 19.9842 4.33587C19.9837 4.60113 19.9832 4.86639 19.9826 5.13968C19.9834 5.41655 19.9844 5.69342 19.9855 5.97029C19.9871 6.54965 19.9866 7.12896 19.9849 7.70832C19.9828 8.44859 19.9864 9.18867 19.9917 9.92892C19.995 10.5005 19.9949 11.072 19.9939 11.6435C19.9939 12.0484 19.9969 12.4533 20 12.8582C19.986 14.9072 19.986 14.9072 19.6063 15.6527C18.7245 16.6261 17.6694 16.5905 16.5133 16.5865C16.357 16.5875 16.2008 16.5886 16.0399 16.5897C15.5256 16.5925 15.0114 16.5923 14.4971 16.5919C14.1383 16.5927 13.7795 16.5935 13.4207 16.5945C12.6694 16.5961 11.9182 16.596 11.1669 16.5949C10.2057 16.5937 9.24457 16.5972 8.2834 16.602C7.54261 16.605 6.80183 16.6052 6.06104 16.6045C5.70672 16.6047 5.35241 16.6057 4.99809 16.6078C4.50204 16.6103 4.0061 16.6089 3.51004 16.6066C3.29206 16.6089 3.29206 16.6089 3.06967 16.6113C2.12829 16.6014 1.45948 16.4512 0.635715 15.9129C0.0985787 15.1725 0.0269493 14.5816 0.0227054 13.6357C0.0204212 13.3885 0.018137 13.1414 0.0157836 12.8868C0.0163122 12.6215 0.0168409 12.3563 0.0173856 12.083C0.0165635 11.8061 0.0156079 11.5292 0.0145251 11.2524C0.012919 10.673 0.0133504 10.0937 0.0151433 9.51434C0.0172117 8.77406 0.0135728 8.03399 0.00831496 7.29374C0.0050015 6.72219 0.00506246 6.15069 0.00608887 5.57913C0.0061297 5.17423 0.00309279 4.76933 0 4.36445C0.0160458 2.01101 0.0160457 2.01101 0.815798 1.10403C1.63352 0.600414 2.41738 0.633104 3.32213 0.636178ZM1.89629 1.72107C2.53455 2.45005 3.17722 3.16095 3.84343 3.85499C3.93899 3.9547 4.03454 4.0544 4.13299 4.15713C5.08128 5.14429 6.04537 6.10815 7.02161 7.05909C7.13376 7.16848 7.24591 7.27786 7.36146 7.39056C7.58507 7.60848 7.80893 7.82606 8.03307 8.04325C8.1371 8.14455 8.24113 8.24584 8.34831 8.35021C8.44801 8.44682 8.54771 8.54343 8.65044 8.64296C8.91951 8.91985 8.91951 8.91985 9.29937 9.41878C9.61981 9.78882 9.61981 9.78882 10.0584 9.76988C10.7621 9.42962 11.2266 8.88358 11.7671 8.2771C11.9932 8.0303 12.2195 7.78364 12.4459 7.53714C12.5533 7.41912 12.6607 7.3011 12.7713 7.17951C13.3301 6.56997 13.9152 5.99696 14.5021 5.4233C14.7051 5.2238 14.9082 5.02428 15.1112 4.82474C15.5462 4.3978 15.9813 3.97098 16.4168 3.54487C16.5172 3.4467 16.6175 3.34853 16.7209 3.24739C17.0248 2.95364 17.3326 2.66595 17.6408 2.37828C17.7936 2.22927 17.9463 2.08027 18.1037 1.92675C18.1037 1.85887 18.1037 1.791 18.1037 1.72107C12.7553 1.72107 7.40681 1.72107 1.89629 1.72107ZM1.17596 2.54378C0.950409 2.75558 0.950409 2.75558 0.974224 3.21147C0.974624 3.41563 0.975024 3.61979 0.975436 3.83013C0.97545 4.06072 0.975463 4.2913 0.975477 4.52888C0.976407 4.77976 0.977336 5.03064 0.978294 5.28912C0.978549 5.54449 0.978804 5.79985 0.979066 6.06295C0.979906 6.74295 0.981525 7.42293 0.983515 8.10292C0.985355 8.79636 0.986179 9.4898 0.987087 10.1832C0.989078 11.5447 0.992095 12.9061 0.99588 14.2675C1.63035 13.7014 2.132 13.1549 2.62788 12.4293C3.35923 11.3834 4.13422 10.4019 4.94437 9.4349C5.45155 8.82163 5.86579 8.22226 6.21827 7.48009C4.87594 6.04864 3.51259 4.67517 2.07637 3.3665C1.909 3.21352 1.74163 3.06054 1.56919 2.90292C1.43942 2.78441 1.30966 2.66589 1.17596 2.54378ZM18.644 2.54378C18.4054 2.8011 18.4054 2.8011 18.1621 3.06361C16.9818 4.32977 15.7968 5.55581 14.5218 6.69755C14.1059 7.0699 14.1059 7.0699 13.7817 7.68577C13.8929 7.82284 14.0041 7.95992 14.1187 8.10115C15.0473 9.25538 15.9357 10.4304 16.7988 11.6499C17.4468 12.5483 18.1136 13.4326 18.824 14.2675C18.8835 14.2675 18.9429 14.2675 19.0041 14.2675C19.0041 10.4666 19.0041 6.6656 19.0041 2.74946C18.8853 2.68159 18.7664 2.61372 18.644 2.54378ZM6.31675 8.99055C6.14731 9.20536 5.97951 9.42186 5.81308 9.63973C5.72442 9.7532 5.63576 9.86668 5.54441 9.9836C5.28743 10.3133 5.03241 10.6448 4.77761 10.9766C4.66317 11.123 4.54872 11.2693 4.43081 11.4201C3.49988 12.6179 2.61063 13.857 1.71621 15.0902C2.18004 15.62 2.49067 15.5518 3.12287 15.5573C3.34236 15.5561 3.34236 15.5561 3.56627 15.5548C3.72032 15.5555 3.87436 15.5563 4.03307 15.557C4.54388 15.5588 5.05465 15.5576 5.56547 15.5562C5.91939 15.5565 6.27331 15.5569 6.62724 15.5574C7.36964 15.558 8.11203 15.5571 8.85444 15.5552C9.80765 15.5529 10.7608 15.5542 11.714 15.5567C12.4451 15.5582 13.1761 15.5577 13.9071 15.5566C14.2586 15.5564 14.6102 15.5567 14.9617 15.5577C15.4524 15.5587 15.943 15.5571 16.4337 15.5548C16.6532 15.5561 16.6532 15.5561 16.8771 15.5573C17.6646 15.5859 17.6646 15.5859 18.2838 15.0902C17.2959 13.6616 16.2612 12.3072 15.1674 10.9842C14.5031 10.1795 13.8655 9.35414 13.2415 8.50849C12.3165 8.70634 11.8038 9.45661 11.1723 10.2005C10.4854 10.9661 10.4854 10.9661 9.91066 11.0144C9.28702 10.6777 8.83888 10.1768 8.35675 9.62687C7.43058 8.42854 7.43058 8.42854 6.31675 8.99055Z" fill="black" fill-opacity="0.7"/>
</svg>
