<svg width="18" height="18" viewBox="0 0 18 18" fill="none" xmlns="http://www.w3.org/2000/svg">
<path d="M15.2344 3.74927H1.73438C1.4733 3.74927 1.22292 3.85298 1.03832 4.03759C0.85371 4.2222 0.75 4.47258 0.75 4.73364V13.7336C0.75 13.9947 0.85371 14.2451 1.03832 14.4297C1.22292 14.6143 1.4733 14.718 1.73438 14.718H15.2344C15.4955 14.718 15.7458 14.6143 15.9305 14.4297C16.115 14.2451 16.2188 13.9947 16.2188 13.7336V4.73364C16.2188 4.47258 16.115 4.2222 15.9305 4.03759C15.7458 3.85298 15.4955 3.74927 15.2344 3.74927ZM1.73438 4.59302H15.2344C15.2717 4.59302 15.3074 4.60784 15.3338 4.63421C15.3602 4.66058 15.375 4.69635 15.375 4.73364V6.23364H1.59375V4.73364C1.59375 4.69635 1.60856 4.66058 1.63494 4.63421C1.66131 4.60784 1.69708 4.59302 1.73438 4.59302ZM15.2344 13.8743H1.73438C1.69708 13.8743 1.66131 13.8595 1.63494 13.8331C1.60856 13.8067 1.59375 13.771 1.59375 13.7336V7.07739H15.375V13.7336C15.375 13.771 15.3602 13.8067 15.3338 13.8331C15.3074 13.8595 15.2717 13.8743 15.2344 13.8743Z" fill="black" fill-opacity="0.7"/>
<path d="M3.00293 8.15845H6.31668" stroke="black" stroke-opacity="0.7" stroke-linecap="round"/>
<path d="M3.00293 9.50317H6.31668" stroke="black" stroke-opacity="0.7" stroke-linecap="round"/>
<path d="M3.00293 8.15806C3.71301 8.14208 5.3699 8.15806 5.3699 9.57826C5.3699 10.9985 3.71301 10.9824 3.00293 10.9985" stroke="black" stroke-opacity="0.7" stroke-linecap="round"/>
<path d="M5.36904 13.4192C5.52934 13.5503 5.7656 13.5267 5.89674 13.3664C6.0279 13.2061 6.00427 12.9699 5.84397 12.8387L5.36904 13.4192ZM2.76538 11.2889L5.36904 13.4192L5.84397 12.8387L3.24031 10.7085L2.76538 11.2889Z" fill="black" fill-opacity="0.7"/>
</svg>
