<svg width="20" height="21" viewBox="0 0 20 21" fill="none" xmlns="http://www.w3.org/2000/svg">
<path d="M13.6544 0.255306C16.6395 1.19346 18.3936 2.36087 19.7595 4.38791C21.1222 10.6895 16.4809 15.2745 11.2124 20.0918C9.86016 20.0514 9.86017 20.0514 8.15979 19.6785C7.07974 18.7921 6.23614 17.9936 5.37433 17.0182C5.13632 16.755 4.8983 16.4919 4.65308 16.2208C1.20159 12.3259 -0.67422 9.03039 0.223136 4.38791C2.91313 0.39599 7.66243 -0.290696 13.6544 0.255306ZM2.66518 3.97465C1.27049 5.86281 1.71236 8.39213 2.42909 10.3915C4.01507 13.3095 6.5321 16.0096 9.38082 18.4388C9.78376 18.4388 10.1867 18.4388 10.6018 18.4388C11.5677 17.5555 12.4489 16.6809 13.311 15.7526C13.6828 15.3528 13.6828 15.3528 14.0621 14.9449C16.9954 11.7331 19.0087 8.6776 17.928 4.80117C16.7063 3.36213 15.2488 2.24136 13.0439 1.49509C8.44496 1.04549 5.69486 1.55381 2.66518 3.97465Z" fill="black" fill-opacity="0.7"/>
<path d="M12.4336 4.38867C13.6546 4.80193 13.6546 4.80193 14.2651 5.62845C14.5825 7.10149 14.6504 8.41297 13.6546 9.76105C11.6631 10.4351 9.72564 10.3891 7.54951 10.1743C6.32848 9.76105 6.32848 9.76105 5.71797 8.93453C5.40062 7.46148 5.33272 6.15 6.32848 4.80193C8.32001 4.12789 10.2575 4.17385 12.4336 4.38867ZM7.54951 6.04171C7.44775 7.28149 7.44775 7.28149 7.54951 8.52127C8.23228 9.07671 8.23228 9.07671 9.99155 8.98619C11.7508 9.07671 11.7508 9.07671 12.4336 8.52127C12.5354 7.28149 12.5354 7.28149 12.4336 6.04171C11.7508 5.48627 11.7508 5.48627 9.99155 5.57679C8.23228 5.48627 8.23228 5.48627 7.54951 6.04171Z" fill="black" fill-opacity="0.7"/>
</svg>
