<svg width="18" height="18" viewBox="0 0 18 18" fill="none" xmlns="http://www.w3.org/2000/svg">
<path d="M7.48989 0.0723228C4.61012 0.599092 2.21866 2.40516 0.941551 5.02647C-2.32636 11.6989 3.39561 19.2242 10.6702 17.832C16.8053 16.6531 19.8979 9.80504 16.7552 4.39937C16.1417 3.35837 14.6267 1.81568 13.6125 1.21366C12.3479 0.473671 10.9331 0.0597801 9.41808 0.00961113C8.67936 -0.0154724 7.81543 0.00961113 7.48989 0.0723228ZM11.4715 1.00044C15.0148 2.12924 17.3187 5.26478 17.3187 8.97725C17.3187 12.7274 15.1025 15.7375 11.3964 17.0168C10.7202 17.2551 10.3071 17.3052 9.01742 17.3052C7.59005 17.3052 7.35216 17.2676 6.37554 16.929C3.67107 15.9758 1.56759 13.7056 0.929031 11.0342C0.641054 9.88029 0.653575 7.89863 0.929031 6.84509C1.55507 4.53733 3.18276 2.54313 5.27372 1.53975C5.9248 1.2262 6.76369 0.912647 7.13931 0.837395C7.51493 0.76214 7.94063 0.674347 8.07836 0.649261C8.66684 0.511297 10.5324 0.711973 11.4715 1.00044Z" fill="black" fill-opacity="0.7"/>
<path d="M8.31751 3.06995C5.48783 3.78485 4.87431 7.52242 7.31585 9.04002C8.15474 9.55425 9.48194 9.64204 10.3208 9.24069C11.3851 8.71392 12.2741 7.37191 12.2741 6.28074C12.2741 5.77906 11.8984 4.76314 11.5479 4.26146C10.8968 3.37096 9.36925 2.80657 8.31751 3.06995Z" fill="black" fill-opacity="0.7"/>
<path d="M7.60142 10.3696C5.78592 10.5577 4.3836 11.5109 3.56975 13.1163L3.23169 13.781L3.98293 14.4834C6.23666 16.6406 9.31676 17.0545 12.3468 15.6122C13.4736 15.0854 14.6506 14.1071 14.6506 13.7183C14.6506 13.3295 13.9745 12.2383 13.3735 11.6489C12.6222 10.9089 11.6832 10.5201 10.3309 10.357C9.09139 10.219 9.00374 10.219 7.60142 10.3696Z" fill="black" fill-opacity="0.7"/>
</svg>
