<svg width="18" height="18" viewBox="0 0 18 18" fill="none" xmlns="http://www.w3.org/2000/svg">
<path d="M15.75 12.4658V5.53295C15.7495 5.43281 15.7226 5.33458 15.6719 5.24816C15.6213 5.16176 15.5488 5.09021 15.4617 5.04077L9.2742 1.56029C9.19087 1.51216 9.0963 1.48682 9 1.48682C8.9037 1.48682 8.80913 1.51216 8.7258 1.56029L2.53828 5.04077C2.4512 5.09021 2.3787 5.16176 2.32808 5.24816C2.27747 5.33458 2.25054 5.43281 2.25 5.53295V12.4658C2.25054 12.5659 2.27747 12.6641 2.32808 12.7505C2.3787 12.8369 2.4512 12.9085 2.53828 12.958L8.7258 16.4384C8.80913 16.4866 8.9037 16.5119 9 16.5119C9.0963 16.5119 9.19087 16.4866 9.2742 16.4384L15.4617 12.958C15.5488 12.9085 15.6213 12.8369 15.6719 12.7505C15.7226 12.6641 15.7495 12.5659 15.75 12.4658Z" stroke="black" stroke-opacity="0.7" stroke-width="1.4" stroke-linecap="round" stroke-linejoin="round"/>
<path d="M12.4453 10.7219V7.06568L5.625 3.30396" stroke="black" stroke-opacity="0.7" stroke-width="1.4" stroke-linecap="round" stroke-linejoin="round"/>
<path d="M15.673 5.24487L9.0636 8.99955L2.32764 5.24487" stroke="black" stroke-opacity="0.7" stroke-width="1.4" stroke-linecap="round" stroke-linejoin="round"/>
<path d="M9.0633 8.99927L9 16.5086" stroke="black" stroke-opacity="0.7" stroke-width="1.4" stroke-linecap="round" stroke-linejoin="round"/>
</svg>
