<svg width="42" height="42" viewBox="0 0 42 42" fill="none" xmlns="http://www.w3.org/2000/svg">
<path d="M20.9998 0C10.6073 0 2.15771 8.44961 2.15771 18.8421C2.15771 29.0031 10.2518 37.3122 20.3302 37.6677V42L25.3156 37.0146L20.3302 32.0291V36.3283C10.9876 35.9646 3.50535 28.2673 3.50535 18.8421C3.50535 9.1937 11.3514 1.34764 20.9998 1.34764C30.6483 1.34764 38.4943 9.1937 38.4943 18.8421H39.842C39.842 8.44961 31.3924 0 20.9998 0ZM21.6695 35.2701L23.4057 37.0063L21.6695 38.7425V35.2701Z" fill="black"/>
<path d="M10.9053 8.74707V28.9368H31.095V8.74707H10.9053ZM18.9828 10.0947H23.0175V12.79H18.9828V10.0947ZM29.7474 27.5892H12.2529V10.0947H17.6352V14.1294H24.3651V10.0947H29.7474V27.5892Z" fill="black"/>
<path d="M26.3824 20.5205L24.0757 23.1083L25.0843 24.0012L25.7127 23.2985V26.2418H27.0603V23.2985L27.6804 24.0012L28.6891 23.1083L26.3824 20.5205Z" fill="black"/>
<path d="M20.7852 20.5205L18.4785 23.1083L19.4872 24.0012L20.1073 23.2985V26.2418H21.4549V23.2985L22.0832 24.0012L23.0836 23.1083L20.7852 20.5205Z" fill="black"/>
</svg>
