<svg width="42" height="42" viewBox="0 0 42 42" fill="none" xmlns="http://www.w3.org/2000/svg">
<g clip-path="url(#clip0_2085_1165)">
<path d="M21.0013 4.90918C12.1261 4.90918 4.90527 12.13 4.90527 21.0053C4.90527 29.8811 12.1261 37.1013 21.0013 37.1013C29.8766 37.1013 37.0973 29.8811 37.0973 21.0052C37.0973 12.13 29.8766 4.90918 21.0013 4.90918ZM21.0013 35.7016C12.8974 35.7016 6.30498 29.1086 6.30498 21.0053C6.30498 12.9013 12.8974 6.30888 21.0013 6.30888C29.1053 6.30888 35.6977 12.9013 35.6977 21.0053C35.6977 29.1085 29.1053 35.7016 21.0013 35.7016Z" fill="black"/>
<path d="M21.0011 23.1045H15.4024C15.0162 23.1045 14.7026 23.4173 14.7026 23.8043V27.3034C14.7026 27.5372 14.8195 27.7555 15.014 27.8857L16.8021 29.0775V32.2023C16.8021 32.4885 16.9763 32.7461 17.2416 32.8524L20.7407 34.252C20.8254 34.2856 20.9136 34.3017 21.0011 34.3017C21.1397 34.3017 21.2762 34.2605 21.3937 34.1814C21.5855 34.0512 21.7009 33.8343 21.7009 33.6019V23.8043C21.7009 23.4173 21.3874 23.1045 21.0011 23.1045ZM20.3013 32.5682L18.2018 31.7285V28.7031C18.2018 28.4694 18.0849 28.2511 17.8904 28.1209L16.1023 26.9291V24.5041H20.3013V32.5682Z" fill="black"/>
<path d="M21.4958 15.6118L17.9966 12.1126C17.7958 11.9125 17.4956 11.8523 17.2338 11.9608C16.9728 12.0692 16.802 12.3247 16.802 12.6074V14.0071H15.4024V7.00879H14.0028V14.7069C14.0028 15.0932 14.3163 15.4067 14.7026 15.4067H17.5019C17.8882 15.4067 18.2017 15.0932 18.2017 14.7069V14.2968L20.3012 16.3963V18.9059H15.4025C15.0162 18.9059 14.7027 19.2194 14.7027 19.6057V22.3484L12.6032 20.6695V16.8065C12.6032 16.4202 12.2896 16.1067 11.9033 16.1067H6.30469V17.5063H11.2034V21.0054C11.2034 21.2175 11.3 21.419 11.4659 21.552L14.965 24.3513C15.0917 24.4528 15.2464 24.5046 15.4024 24.5046C15.506 24.5046 15.6095 24.4822 15.7054 24.4352C15.9482 24.3184 16.1022 24.0741 16.1022 23.8047V20.3055H21.001C21.3873 20.3055 21.7008 19.992 21.7008 19.6057V16.1066C21.7009 15.9211 21.6274 15.7433 21.4958 15.6118Z" fill="black"/>
<path d="M28.2044 7.21408L23.1005 12.3179L21.7009 10.9183V5.60938H20.3013V11.208C20.3013 11.3935 20.3748 11.5713 20.5063 11.7028L22.6059 13.8024C22.7367 13.9339 22.9145 14.0074 23.1007 14.0074C23.2862 14.0074 23.4639 13.9339 23.5955 13.8024L29.1941 8.20371L28.2044 7.21408Z" fill="black"/>
<path d="M36.3259 19.9983C36.2084 19.7583 35.9648 19.6057 35.6975 19.6057H33.598V13.3072C33.598 12.9209 33.2852 12.6074 32.8981 12.6074H28.6992C28.5131 12.6074 28.336 12.6809 28.2044 12.8125L24.7052 16.3116C24.4316 16.5853 24.4316 17.0275 24.7052 17.3012L27.2995 19.8954V26.604C27.2995 26.991 27.6123 27.3038 27.9993 27.3038H30.7986C31.0142 27.3038 31.2178 27.2037 31.3508 27.0337L36.2495 20.7352C36.4134 20.5245 36.4435 20.2383 36.3259 19.9983ZM30.4565 25.9042H28.6992V19.6057C28.6992 19.4202 28.6257 19.2425 28.4941 19.1109L26.1896 16.8064L28.9889 14.007H32.1983V20.3055C32.1983 20.6918 32.5111 21.0053 32.8981 21.0053H34.2663L30.4565 25.9042Z" fill="black"/>
<path d="M24.3806 40.3093C23.2664 40.5025 22.1292 40.6005 21.0011 40.6005C20.999 40.6005 20.997 40.6005 20.9948 40.6005C15.7636 40.6005 10.8445 38.564 7.1438 34.8654C3.44098 31.1661 1.40102 26.2456 1.39962 21.0116C1.39897 18.1926 1.98959 15.4626 3.15551 12.8971L1.8818 12.3184C0.631972 15.0672 -0.000737639 17.9926 6.45356e-07 21.0116C0.00139518 26.6193 2.1877 31.8918 6.1536 35.8556C10.1188 39.8181 15.3892 42.0001 20.9948 42.0001C20.997 42.0001 20.999 42.0001 21.0018 42.0001C22.2097 42.0001 23.4267 41.8958 24.6199 41.6887L24.3806 40.3093Z" fill="black"/>
<path d="M28.4341 39.1416C27.6825 39.4502 26.905 39.7141 26.124 39.9247L26.4887 41.2767C27.3264 41.05 28.1591 40.7672 28.966 40.4362L28.4341 39.1416Z" fill="black"/>
<path d="M41.5494 16.6438C39.1482 5.31914 27.9846 -1.94369 16.6572 0.459511L16.9476 1.82837C27.5157 -0.412402 37.9397 6.36472 40.1798 16.9342C41.0434 21.0015 40.5696 25.3272 38.8466 29.1132L40.1203 29.6927C41.9665 25.6366 42.4731 21.0023 41.5494 16.6438Z" fill="black"/>
<path d="M15.2193 0.845703C14.4824 1.04586 13.751 1.29007 13.0449 1.5707L13.5614 2.87164C14.2192 2.61061 14.9001 2.38314 15.586 2.19627L15.2193 0.845703Z" fill="black"/>
<path d="M12.3977 3.71266C10.9588 2.2808 8.64102 2.21361 7.12098 3.55942L3.23973 7.00811H0.706353C0.42359 7.00811 0.168226 7.17816 0.0596983 7.43993C-0.0488295 7.70169 0.0113817 8.00258 0.211539 8.20274L3.71068 11.7019C3.84718 11.8384 4.02633 11.907 4.20549 11.907C4.37415 11.907 4.54281 11.8467 4.67652 11.7243L12.3746 4.72599C12.5167 4.5972 12.5993 4.416 12.6035 4.22421C12.6077 4.03315 12.5334 3.84776 12.3977 3.71266ZM4.22862 10.2406L2.39571 8.40782H3.50568C3.67713 8.40782 3.84234 8.34555 3.97039 8.23145L8.04965 4.60705C8.82436 3.92052 9.92523 3.81134 10.8035 4.26342L4.22862 10.2406Z" fill="black"/>
<path d="M41.7905 33.8068L38.2913 30.3077C38.0282 30.0425 37.6027 30.034 37.3256 30.2846L29.6275 37.2828C29.4861 37.4123 29.4035 37.5942 29.3986 37.7853C29.3944 37.9763 29.4693 38.1618 29.6051 38.2968C30.3532 39.0414 31.3386 39.4166 32.326 39.4166C33.2378 39.4166 34.1525 39.0961 34.8818 38.4494L38.7623 35.0014H41.2957C41.5785 35.0014 41.8346 34.8313 41.9424 34.5696C42.0507 34.3079 41.9906 34.007 41.7905 33.8068ZM38.4971 33.6017C38.3256 33.6017 38.1604 33.6647 38.0323 33.7788L33.9537 37.4025C33.179 38.0876 32.0782 38.1982 31.1992 37.7461L37.7741 31.7689L39.6069 33.6017H38.4971Z" fill="black"/>
</g>
<defs>
<clipPath id="clip0_2085_1165">
<rect width="42" height="42" fill="white"/>
</clipPath>
</defs>
</svg>
