<svg width="18" height="18" viewBox="0 0 18 18" fill="none" xmlns="http://www.w3.org/2000/svg">
<path d="M9 15.1868C9 15.1868 1.96875 11.2493 1.96875 6.46802C1.96875 5.62279 2.26159 4.80366 2.79747 4.15001C3.33334 3.49634 4.07913 3.04854 4.90795 2.88278C5.73677 2.71701 6.59743 2.84353 7.34348 3.2408C8.08958 3.63807 8.67488 4.28156 9 5.06177C9.32512 4.28156 9.91043 3.63807 10.6565 3.2408C11.4026 2.84353 12.2633 2.71701 13.0921 2.88278C13.9209 3.04854 14.6666 3.49634 15.2025 4.15001C15.7384 4.80366 16.0312 5.62279 16.0312 6.46802C16.0312 11.2493 9 15.1868 9 15.1868Z" stroke="black" stroke-opacity="0.7" stroke-width="1.4" stroke-linecap="round" stroke-linejoin="round"/>
</svg>
